<?xml version="1.0" encoding="utf-8"?>
<!-- Generator: Adobe Illustrator 25.0.1, SVG Export Plug-In . SVG Version: 6.00 Build 0)  -->
<svg version="1.1" id="Layer_1" xmlns="http://www.w3.org/2000/svg" xmlns:xlink="http://www.w3.org/1999/xlink" x="0px" y="0px"
	 viewBox="0 0 179.96 51.68" style="enable-background:new 0 0 179.96 51.68;" xml:space="preserve">
<style type="text/css">
	.st0{fill:#000018;}
	.st1{fill:#B5995A;}
</style>
<g id="Group_1978" transform="translate(-25.352 -94)">
	<g id="Group_3" transform="translate(66.024 112.248)">
		<path id="Path_1" class="st0" d="M0,10.96h0.59c0.74,4.6,3.46,4.21,4.74,4.21c2.81,0,3.4-1.69,3.4-3.07c0-2.1-2.19-3.02-2.55-3.13
			L3.89,8.23c-2.15-0.7-3.41-1.8-3.41-3.72C0.38,2.16,2.2,0.17,4.55,0.06c0.15-0.01,0.3-0.01,0.44,0c1.85,0,2.37,0.82,3.13,0.82
			c0.34,0,0.4-0.04,0.6-0.44h0.55v3.83H8.7C8.38,2.24,7.15,0.72,4.99,0.72c-1.3,0-3.02,0.29-3.02,2.54c0,1.82,1.23,2.43,2.6,2.9
			l2.41,0.8c1,0.34,3.55,0.97,3.55,3.87c0.08,2.68-2.03,4.92-4.71,5c-0.17,0.01-0.33,0-0.5-0.01c-0.85,0.03-1.7-0.07-2.51-0.32
			c-0.53-0.23-1.09-0.38-1.65-0.46c-0.4,0-0.5,0.19-0.6,0.46h-0.57L0,10.96z"/>
		<path id="Path_2" class="st0" d="M22.76,15.21h2.21V0.75h-1.16c-1.06,0-2.99,0.22-3.63,3.57h-0.54V0.06H32.3v4.26h-0.55
			c-0.67-3.41-2.57-3.57-3.63-3.57h-1.16v14.47h2.21v0.7h-6.42L22.76,15.21z"/>
		<path id="Path_3" class="st0" d="M40.27,0.04h6.42v0.7h-2.21v10.22c0,3.38,1.1,4.55,3.23,4.55c1.36,0.12,2.69-0.47,3.51-1.57
			c0.52-0.74,0.84-1.33,0.84-3.36V0.75h-1.93v-0.7h4.58v0.7h-1.92V11c0.06,1.12-0.26,2.22-0.92,3.13c-0.93,1.35-2.52,2.09-4.15,1.96
			c-3.17,0-5.24-1.92-5.24-5.35v-10h-2.21V0.04z"/>
		<path id="Path_4" class="st0" d="M62.69,15.21h2.21V0.75h-2.21v-0.7h6.42v0.7h-2.21v14.47h3.42c2.33,0,3.48-0.77,4.06-4.34h0.63
			v5.04H62.69V15.21z"/>
		<path id="Path_5" class="st0" d="M83.42,15.21h2.21V0.75h-2.21v-0.7h6.42v0.7h-2.21v14.47h3.42c2.33,0,3.74-0.8,4.08-4.34h0.62
			v5.04H83.42V15.21z"/>
		<path id="Path_6" class="st0" d="M104.16,15.21h2.21V0.75h-2.21v-0.7h11.68v4.06h-0.56c-0.68-2.58-1.4-3.36-3.6-3.36h-3.31v6.39
			h1.3c1.77,0,2.5-0.98,2.85-2.97h0.62v6.45h-0.62c-0.27-1.72-0.45-2.7-2.53-2.78h-1.62v7.37h3.77c2.91,0,3.61-1.86,3.9-4.34h0.7
			v5.11h-12.58V15.21z"/>
		<path id="Path_7" class="st0" d="M125.28,15.21h2.21V0.75h-2.21v-0.7c0,0,5.38-0.04,5.7-0.04c1.33-0.14,2.67,0.23,3.75,1.03
			c0.81,0.76,1.27,1.82,1.28,2.93c0.11,1.86-1.31,3.46-3.17,3.57c-0.07,0-0.13,0.01-0.2,0.01V7.51c0.86,0.13,3.05,0.39,3.57,2.31
			c0.3,1.1,0.22,3.09,0.42,4.06c0.16,0.74,0.44,1.44,1.22,1.44c0.39-0.01,0.76-0.17,1.04-0.45l0.41,0.6
			c-0.49,0.44-1.14,0.65-1.8,0.59c-2.13,0-2.88-1.53-3.04-3.66l-0.14-1.93c0-2.51-1.91-2.49-2.83-2.49h-1.99v7.23h2.21v0.77h-6.42
			V15.21z M129.49,7.14h1.83c1.48,0,2.49-0.53,2.49-3.14c0-2.96-1.58-3.32-2.97-3.32c-0.45,0-0.91,0.02-1.36,0.06L129.49,7.14z"/>
	</g>
	<g id="Group_2" transform="translate(25.352 94)">
		<path id="Path_8" class="st1" d="M10.44,2.43c0.09-0.06,0.36-0.26,0.46-0.18c0.02,0.03,0.07,0.07-0.21,0.3
			c-2.66,2.43-4.12,5.9-4,9.49c0,11.22,13.88,13.78,13.88,24.19c0.04,4.33-3.43,7.87-7.76,7.92c-0.17,0-0.33,0-0.5-0.01
			c-4.09-0.37-5.58-3.17-5.6-5.3c0-0.5,0.08-0.99,0.25-1.47c0.02-0.06,0.15-0.4,0.3-0.36c0.1,0.04-0.01,0.36-0.03,0.42
			c-0.56,2.47,0.98,4.93,3.45,5.5c0.35,0.08,0.72,0.12,1.08,0.11c2.98,0,4.81-2.66,4.81-5.55c0-8.7-11.1-12.62-11.1-24.79
			C5.49,12.71,5.41,5.79,10.44,2.43z"/>
		<path id="Path_9" class="st1" d="M9.36,31.13c0.01-0.12-0.12-0.15-0.21-0.17c-4.08-0.34-7.81,2.29-8.87,6.25
			c-1.27,4.7,1.78,11.34,8.98,13.77c8.66,2.93,20.93-3.42,20.93-14.39c0-13.42-18.22-16.72-17.59-29.33
			c0.15-3.07,2.2-6.44,5.91-6.44c4.24,0,5.92,4.02,4.51,6.52c-0.05,0.11-0.14,0.26-0.04,0.32c0.1,0.05,0.19-0.06,0.26-0.18
			c1.61-2.54-0.02-7.39-4.88-7.46c-3.43-0.08-7.36,2.52-7.84,7.68C9.36,21.27,25.54,26.51,25.54,38.17
			c0,6.75-5.99,15.11-16.06,12.05c-6.23-2.32-8.53-7.95-7.3-12.58c1.04-3.93,4.11-6.51,6.85-6.45C9.27,31.19,9.34,31.19,9.36,31.13z
			"/>
	</g>
</g>
</svg>
